# xmcd
#
# Track frame offsets: 
#        150
#        15250
#        39955
#        59945
#        76420
#        98587
#        125957
#        147222
#        165532
#        196745
#
# Disc length: 2893 seconds
#
# Revision: 1
# Processed by: cddbd v1.5.2PL0 Copyright (c) Steve Scherf et al.
# Submitted via: ExactAudioCopy v1.0b3
#
DISCID=7e0b4b0a
DTITLE=Skyfire - Mind Revolution
DYEAR=2003
DGENRE=Melodic Death Metal
TTITLE0=Nightmares Nevermore
TTITLE1=Haunted By Shadows
TTITLE2=Colliding In Mind
TTITLE3=Dawn Will Break
TTITLE4=Uncloud The Sky
TTITLE5=Shapes Of Insanity
TTITLE6=Blinded By Euphoria
TTITLE7=Caged
TTITLE8=Mind Revolution
TTITLE9=Free From Torment [Bonus Track For Japan]
EXTD=
EXTT0=
EXTT1=
EXTT2=
EXTT3=
EXTT4=
EXTT5=
EXTT6=
EXTT7=
EXTT8=
EXTT9=
PLAYORDER=
